<svg width="42" height="42" viewBox="0 0 42 42" fill="none" xmlns="http://www.w3.org/2000/svg">
<rect width="42" height="42" fill="none"/>
<path d="M35 21C35 23.0867 34.6171 24.39 34.126 25.2264C33.658 26.0237 32.9799 26.5893 31.9855 27.0103C30.9394 27.4532 29.5741 27.7202 27.8338 27.8595C26.0981 27.9985 24.1648 28 22 28C19.8352 28 17.9019 27.9985 16.1662 27.8595C14.4259 27.7202 13.0606 27.4532 12.0145 27.0103C11.0201 26.5893 10.342 26.0237 9.87396 25.2264C9.38289 24.39 9 23.0867 9 21C9 19.5735 9.95304 17.8808 12.3463 16.414C14.6976 14.9728 18.1045 14 22 14C25.8955 14 29.3024 14.9728 31.6537 16.414C34.047 17.8808 35 19.5735 35 21Z" stroke="#FF56BC" stroke-width="5"/>
</svg>
